{
    "asset": {
        "generator": "Khronos glTF Blender I/O v1.3.48",
        "version": "2.0"
    },
    "scene": 0,
    "scenes": [
        {
            "name": "Scene",
            "nodes": [
                0
            ]
        }
    ],
    "nodes": [
        {
            "mesh": 0,
            "name": "model_engine_01"
        }
    ],
    "materials": [
        {
            "doubleSided": true,
            "emissiveFactor": [
                0,
                0,
                0
            ],
            "name": "pallete_01",
            "normalTexture" : {
                "index" : 1,
                "texCoord" : 0
            },
            "pbrMetallicRoughness": {
                "baseColorTexture": {
                    "index": 0,
                    "texCoord": 0
                },
                "metallicRoughnessTexture": {
                    "index": 2,
                    "texCoord": 0
                }
            }
        }
    ],
    "meshes": [
        {
            "name": "Mesh.007",
            "primitives": [
                {
                    "attributes": {
                        "POSITION": 0,
                        "NORMAL": 1,
                        "TANGENT": 2,
                        "TEXCOORD_0": 3
                    },
                    "indices": 4,
                    "material": 0
                }
            ]
        }
    ],
    "textures": [
        {
            "source": 0
        },
        {
            "source": 1
        },
        {
            "source": 2
        }
    ],
    "images": [
        {
            "mimeType": "image/png",
            "name": "pallete_01_diff",
            "uri": "pallete_01_diff.png"
        },
        {
            "mimeType": "image/png",
            "name": "pallete_01_norm",
            "uri": "pallete_01_norm.png"
        },
        {
            "mimeType": "image/png",
            "name": "pallete_01_meta",
            "uri": "pallete_01_meta.png"
        }
    ],
    "accessors": [
        {
            "bufferView": 0,
            "componentType": 5126,
            "count": 353,
            "max": [
                0.500028133392334,
                0.4999999701976776,
                0.49999651312828064
            ],
            "min": [
                -0.4999718964099884,
                -0.5000002384185791,
                -0.5000035166740417
            ],
            "type": "VEC3"
        },
        {
            "bufferView": 1,
            "componentType": 5126,
            "count": 353,
            "type": "VEC3"
        },
        {
            "bufferView": 2,
            "componentType": 5126,
            "count": 353,
            "type": "VEC4"
        },
        {
            "bufferView": 3,
            "componentType": 5126,
            "count": 353,
            "type": "VEC2"
        },
        {
            "bufferView": 4,
            "componentType": 5123,
            "count": 570,
            "type": "SCALAR"
        }
    ],
    "bufferViews": [
        {
            "buffer": 0,
            "byteLength": 4236,
            "byteOffset": 0
        },
        {
            "buffer": 0,
            "byteLength": 4236,
            "byteOffset": 4236
        },
        {
            "buffer": 0,
            "byteLength": 5648,
            "byteOffset": 8472
        },
        {
            "buffer": 0,
            "byteLength": 2824,
            "byteOffset": 14120
        },
        {
            "buffer": 0,
            "byteLength": 1140,
            "byteOffset": 16944
        }
    ],
    "buffers": [
        {
            "byteLength": 18084,
            "uri": "model_engine_01.bin"
        }
    ]
}