{
    "asset" : {
        "generator" : "Khronos glTF Blender I/O v1.7.33",
        "version" : "2.0"
    },
    "scene" : 0,
    "scenes" : [
        {
            "name" : "Scene",
            "nodes" : [
                0
            ]
        }
    ],
    "nodes" : [
        {
            "mesh" : 0,
            "name" : "model_battery",
            "rotation" : [
                1,
                0,
                0,
                7.549790126404332e-08
            ]
        }
    ],
    "materials" : [
        {
            "doubleSided" : true,
            "name" : "model_battery",
            "pbrMetallicRoughness" : {
                "baseColorTexture" : {
                    "index" : 0
                },
                "metallicFactor" : 0,
                "roughnessFactor" : 0.5
            },
            "emissiveTexture": {
                "index": 1
            },
            "emissiveFactor": [
                1.0,
                1.0,
                1.0
            ]
        }
    ],
    "meshes" : [
        {
            "name" : "Cylinder.020",
            "primitives" : [
                {
                    "attributes" : {
                        "POSITION" : 0,
                        "NORMAL" : 1,
                        "TANGENT" : 2,
                        "TEXCOORD_0" : 3
                    },
                    "indices" : 4,
                    "material" : 0
                }
            ]
        }
    ],
    "textures" : [
        {
            "sampler" : 0,
            "source" : 0
        },
        {
            "sampler" : 0,
            "source" : 1
        }
    ],
    "images" : [
        {
            "mimeType" : "image/png",
            "name" : "model_battery_diffuse",
            "uri" : "model_battery_diffuse.png"
        },
        {
            "mimeType" : "image/png",
            "name" : "model_battery_emissive",
            "uri" : "model_battery_emissive.png"
        }
    ],
    "accessors" : [
        {
            "bufferView" : 0,
            "componentType" : 5126,
            "count" : 2409,
            "max" : [
                0.5000001192092896,
                0.5000000596046448,
                0.5000001788139343
            ],
            "min" : [
                -0.5000001192092896,
                -0.5000000596046448,
                -0.5000001192092896
            ],
            "type" : "VEC3"
        },
        {
            "bufferView" : 1,
            "componentType" : 5126,
            "count" : 2409,
            "type" : "VEC3"
        },
        {
            "bufferView" : 2,
            "componentType" : 5126,
            "count" : 2409,
            "type" : "VEC4"
        },
        {
            "bufferView" : 3,
            "componentType" : 5126,
            "count" : 2409,
            "type" : "VEC2"
        },
        {
            "bufferView" : 4,
            "componentType" : 5123,
            "count" : 2628,
            "type" : "SCALAR"
        }
    ],
    "bufferViews" : [
        {
            "buffer" : 0,
            "byteLength" : 28908,
            "byteOffset" : 0
        },
        {
            "buffer" : 0,
            "byteLength" : 28908,
            "byteOffset" : 28908
        },
        {
            "buffer" : 0,
            "byteLength" : 38544,
            "byteOffset" : 57816
        },
        {
            "buffer" : 0,
            "byteLength" : 19272,
            "byteOffset" : 96360
        },
        {
            "buffer" : 0,
            "byteLength" : 5256,
            "byteOffset" : 115632
        }
    ],
    "samplers" : [
        {
            "magFilter" : 9729,
            "minFilter" : 9987
        }
    ],
    "buffers" : [
        {
            "byteLength" : 120888,
            "uri" : "model_battery.bin"
        }
    ]
}
