{
	"asset":{
		"generator":"Khronos glTF Blender I/O v3.6.27",
		"version":"2.0"
	},
	"scene":0,
	"scenes":[
		{
			"name":"Scene",
			"nodes":[
				0,
				1
			]
		}
	],
	"nodes":[
		{
			"mesh":0,
			"name":"model_asteroid_01_b_CCX"
		},
		{
			"mesh":1,
			"name":"model_asteroid_01_b"
		}
	],
	"materials":[
		{
			"name":"Material.002",
			"normalTexture":{
				"index":0
			},
			"pbrMetallicRoughness":{
				"baseColorFactor":[
					1.0,
					1.0,
					1.0,
					1
				],
				"baseColorTexture":{
					"index":1
				},
				"metallicRoughnessTexture":{
					"index":2
				}
			}
		}
	],
	"meshes":[
		{
			"name":"model_asteroid_01_b_CCX",
			"primitives":[
				{
					"attributes":{
						"POSITION":0,
						"NORMAL":1
					},
					"indices":2
				}
			]
		},
		{
			"name":"model_asteroid_01_b",
			"primitives":[
				{
					"attributes":{
						"POSITION":3,
						"NORMAL":4,
						"TEXCOORD_0":5,
						"TANGENT":6
					},
					"indices":7,
					"material":0
				}
			]
		}
	],
	"textures":[
		{
			"sampler":0,
			"source":0
		},
		{
			"sampler":0,
			"source":1
		},
		{
			"sampler":0,
			"source":2
		}
	],
	"images":[
		{
			"mimeType":"image/png",
			"name":"model_asteroid_01_norm",
			"uri":"model_asteroid_01_norm.png"
		},
		{
			"mimeType":"image/png",
			"name":"model_asteroid_01_diff",
			"uri":"model_asteroid_01_diff.png"
		},
		{
			"mimeType":"image/png",
			"name":"model_asteroid_01_meta",
			"uri":"model_asteroid_01_meta.png"
		}
	],
	"accessors":[
		{
			"bufferView":0,
			"componentType":5126,
			"count":114,
			"max":[
				0.5456048846244812,
				0.7857265472412109,
				0.9163335561752319
			],
			"min":[
				-0.6363096833229065,
				-0.980778694152832,
				-0.5285977721214294
			],
			"type":"VEC3"
		},
		{
			"bufferView":1,
			"componentType":5126,
			"count":114,
			"type":"VEC3"
		},
		{
			"bufferView":2,
			"componentType":5123,
			"count":114,
			"type":"SCALAR"
		},
		{
			"bufferView":3,
			"componentType":5126,
			"count":950,
			"max":[
				0.5465103387832642,
				0.7447504997253418,
				0.8606902956962585
			],
			"min":[
				-0.5519611239433289,
				-0.9717564582824707,
				-0.49543899297714233
			],
			"type":"VEC3"
		},
		{
			"bufferView":4,
			"componentType":5126,
			"count":950,
			"type":"VEC3"
		},
		{
			"bufferView":5,
			"componentType":5126,
			"count":950,
			"type":"VEC2"
		},
		{
			"bufferView":6,
			"componentType":5126,
			"count":950,
			"type":"VEC4"
		},
		{
			"bufferView":7,
			"componentType":5123,
			"count":1014,
			"type":"SCALAR"
		}
	],
	"bufferViews":[
		{
			"buffer":0,
			"byteLength":1368,
			"byteOffset":0,
			"target":34962
		},
		{
			"buffer":0,
			"byteLength":1368,
			"byteOffset":1368,
			"target":34962
		},
		{
			"buffer":0,
			"byteLength":228,
			"byteOffset":2736,
			"target":34963
		},
		{
			"buffer":0,
			"byteLength":11400,
			"byteOffset":2964,
			"target":34962
		},
		{
			"buffer":0,
			"byteLength":11400,
			"byteOffset":14364,
			"target":34962
		},
		{
			"buffer":0,
			"byteLength":7600,
			"byteOffset":25764,
			"target":34962
		},
		{
			"buffer":0,
			"byteLength":15200,
			"byteOffset":33364,
			"target":34962
		},
		{
			"buffer":0,
			"byteLength":2028,
			"byteOffset":48564,
			"target":34963
		}
	],
	"samplers":[
		{
			"magFilter":9729,
			"minFilter":9987
		}
	],
	"buffers":[
		{
			"byteLength":50592,
			"uri":"model_asteroid_01_b.bin"
		}
	]
}
