{
	"asset":{
		"generator":"Khronos glTF Blender I/O v3.6.27",
		"version":"2.0"
	},
	"scene":0,
	"scenes":[
		{
			"name":"Scene",
			"nodes":[
				0,
				1
			]
		}
	],
	"nodes":[
		{
			"mesh":0,
			"name":"model_asteroid_01_c_CCX"
		},
		{
			"mesh":1,
			"name":"model_asteroid_01_c"
		}
	],
	"materials":[
		{
			"name":"Material.011",
			"normalTexture":{
				"index":0
			},
			"pbrMetallicRoughness":{
				"baseColorTexture":{
					"index":1
				},
				"metallicRoughnessTexture":{
					"index":2
				}
			}
		}
	],
	"meshes":[
		{
			"name":"model_asteroid_01_c_CCX.001",
			"primitives":[
				{
					"attributes":{
						"POSITION":0,
						"NORMAL":1
					},
					"indices":2
				}
			]
		},
		{
			"name":"model_asteroid_01_c.001",
			"primitives":[
				{
					"attributes":{
						"POSITION":3,
						"NORMAL":4,
						"TEXCOORD_0":5,
						"TANGENT":6
					},
					"indices":7,
					"material":0
				}
			]
		}
	],
	"textures":[
		{
			"sampler":0,
			"source":0
		},
		{
			"sampler":0,
			"source":1
		},
		{
			"sampler":0,
			"source":2
		}
	],
	"images":[
		{
			"mimeType":"image/png",
			"name":"model_asteroid_01_norm",
			"uri":"model_asteroid_01_norm.png"
		},
		{
			"mimeType":"image/png",
			"name":"model_asteroid_01_diff",
			"uri":"model_asteroid_01_diff.png"
		},
		{
			"mimeType":"image/png",
			"name":"model_asteroid_01_meta",
			"uri":"model_asteroid_01_meta.png"
		}
	],
	"accessors":[
		{
			"bufferView":0,
			"componentType":5126,
			"count":21,
			"max":[
				0.7257899045944214,
				0.8380843997001648,
				0.9612915515899658
			],
			"min":[
				-0.7835214734077454,
				-1.0897339582443237,
				-0.8047419786453247
			],
			"type":"VEC3"
		},
		{
			"bufferView":1,
			"componentType":5126,
			"count":21,
			"type":"VEC3"
		},
		{
			"bufferView":2,
			"componentType":5123,
			"count":114,
			"type":"SCALAR"
		},
		{
			"bufferView":3,
			"componentType":5126,
			"count":982,
			"max":[
				0.6944241523742676,
				0.8756219148635864,
				0.970623254776001
			],
			"min":[
				-0.6986455917358398,
				-1.0331788063049316,
				-0.6869105696678162
			],
			"type":"VEC3"
		},
		{
			"bufferView":4,
			"componentType":5126,
			"count":982,
			"type":"VEC3"
		},
		{
			"bufferView":5,
			"componentType":5126,
			"count":982,
			"type":"VEC2"
		},
		{
			"bufferView":6,
			"componentType":5126,
			"count":982,
			"type":"VEC4"
		},
		{
			"bufferView":7,
			"componentType":5123,
			"count":1014,
			"type":"SCALAR"
		}
	],
	"bufferViews":[
		{
			"buffer":0,
			"byteLength":252,
			"byteOffset":0,
			"target":34962
		},
		{
			"buffer":0,
			"byteLength":252,
			"byteOffset":252,
			"target":34962
		},
		{
			"buffer":0,
			"byteLength":228,
			"byteOffset":504,
			"target":34963
		},
		{
			"buffer":0,
			"byteLength":11784,
			"byteOffset":732,
			"target":34962
		},
		{
			"buffer":0,
			"byteLength":11784,
			"byteOffset":12516,
			"target":34962
		},
		{
			"buffer":0,
			"byteLength":7856,
			"byteOffset":24300,
			"target":34962
		},
		{
			"buffer":0,
			"byteLength":15712,
			"byteOffset":32156,
			"target":34962
		},
		{
			"buffer":0,
			"byteLength":2028,
			"byteOffset":47868,
			"target":34963
		}
	],
	"samplers":[
		{
			"magFilter":9729,
			"minFilter":9987
		}
	],
	"buffers":[
		{
			"byteLength":49896,
			"uri":"model_asteroid_01_c.bin"
		}
	]
}
