{
	"asset":{
		"generator":"Khronos glTF Blender I/O v3.6.6",
		"version":"2.0"
	},
	"scene":0,
	"scenes":[
		{
			"name":"Scene",
			"nodes":[
				4
			]
		}
	],
	"nodes":[
		{
			"name":"Cannon",
			"rotation":[
				0.7071067690849304,
				-3.0908619663705394e-08,
				1.376787679419067e-07,
				0.7071067690849304
			],
			"translation":[
				2.5849394142282115e-26,
				0.3986305892467499,
				6.162975822039155e-33
			]
		},
		{
			"children":[
				0
			],
			"name":"Arm",
			"rotation":[
				2.5329931701384407e-25,
				0,
				-1.0624143385484343e-18,
				1
			],
			"translation":[
				0,
				0.10136941075325012,
				0
			]
		},
		{
			"children":[
				1
			],
			"name":"Base",
			"rotation":[
				0,
				1.1920928955078125e-07,
				0,
				1
			]
		},
		{
			"mesh":0,
			"name":"Mesh",
			"skin":0
		},
		{
			"children":[
				3,
				2
			],
			"name":"Armature"
		}
	],
	"materials":[
		{
			"doubleSided":true,
			"name":"Material",
			"normalTexture":{
				"index":0
			},
			"pbrMetallicRoughness":{
				"baseColorTexture":{
					"index":1
				},
				"metallicRoughnessTexture":{
					"index":2
				}
			}
		}
	],
	"meshes":[
		{
			"name":"Mesh",
			"primitives":[
				{
					"attributes":{
						"COLOR_0":0,
						"POSITION":1,
						"TEXCOORD_0":2,
						"NORMAL":3,
						"TANGENT":4,
						"JOINTS_0":5,
						"WEIGHTS_0":6
					},
					"indices":7,
					"material":0
				}
			]
		}
	],
	"textures":[
		{
			"sampler":0,
			"source":0
		},
		{
			"sampler":0,
			"source":1
		},
		{
			"sampler":0,
			"source":2
		}
	],
	"images":[
		{
			"mimeType":"image/png",
			"name":"model_turret_projectile_01_norm",
			"uri":"model_turret_projectile_01_norm.png"
		},
		{
			"mimeType":"image/png",
			"name":"model_turret_projectile_01_diff",
			"uri":"model_turret_projectile_01_diff.png"
		},
		{
			"mimeType":"image/png",
			"name":"model_turret_projectile_01_meta",
			"uri":"model_turret_projectile_01_meta.png"
		}
	],
	"skins":[
		{
			"inverseBindMatrices":8,
			"joints":[
				2,
				1,
				0
			],
			"name":"Armature"
		}
	],
	"accessors":[
		{
			"bufferView":0,
			"componentType":5123,
			"count":411,
			"normalized":true,
			"type":"VEC4"
		},
		{
			"bufferView":1,
			"componentType":5126,
			"count":411,
			"max":[
				0.36000001430511475,
				0.6000000238418579,
				1.25
			],
			"min":[
				-0.36000001430511475,
				0,
				-0.36000001430511475
			],
			"type":"VEC3"
		},
		{
			"bufferView":2,
			"componentType":5126,
			"count":411,
			"type":"VEC2"
		},
		{
			"bufferView":3,
			"componentType":5126,
			"count":411,
			"type":"VEC3"
		},
		{
			"bufferView":4,
			"componentType":5126,
			"count":411,
			"type":"VEC4"
		},
		{
			"bufferView":5,
			"componentType":5121,
			"count":411,
			"type":"VEC4"
		},
		{
			"bufferView":6,
			"componentType":5126,
			"count":411,
			"type":"VEC4"
		},
		{
			"bufferView":7,
			"componentType":5123,
			"count":708,
			"type":"SCALAR"
		},
		{
			"bufferView":8,
			"componentType":5126,
			"count":3,
			"type":"MAT4"
		}
	],
	"bufferViews":[
		{
			"buffer":0,
			"byteLength":3288,
			"byteOffset":0,
			"target":34962
		},
		{
			"buffer":0,
			"byteLength":4932,
			"byteOffset":3288,
			"target":34962
		},
		{
			"buffer":0,
			"byteLength":3288,
			"byteOffset":8220,
			"target":34962
		},
		{
			"buffer":0,
			"byteLength":4932,
			"byteOffset":11508,
			"target":34962
		},
		{
			"buffer":0,
			"byteLength":6576,
			"byteOffset":16440,
			"target":34962
		},
		{
			"buffer":0,
			"byteLength":1644,
			"byteOffset":23016,
			"target":34962
		},
		{
			"buffer":0,
			"byteLength":6576,
			"byteOffset":24660,
			"target":34962
		},
		{
			"buffer":0,
			"byteLength":1416,
			"byteOffset":31236,
			"target":34963
		},
		{
			"buffer":0,
			"byteLength":192,
			"byteOffset":32652
		}
	],
	"samplers":[
		{
			"magFilter":9729,
			"minFilter":9987
		}
	],
	"buffers":[
		{
			"byteLength":32844,
			"uri":"model_turret_projectile_01.bin"
		}
	]
}
