{
	"asset":{
		"generator":"Khronos glTF Blender I/O v3.6.27",
		"version":"2.0"
	},
	"scene":0,
	"scenes":[
		{
			"name":"Scene",
			"nodes":[
				0,
				1
			]
		}
	],
	"nodes":[
		{
			"mesh":0,
			"name":"model_asteroid_01_d_CCX"
		},
		{
			"mesh":1,
			"name":"model_asteroid_01_d"
		}
	],
	"materials":[
		{
			"name":"Material.007",
			"normalTexture":{
				"index":0
			},
			"pbrMetallicRoughness":{
				"baseColorTexture":{
					"index":1
				},
				"metallicRoughnessTexture":{
					"index":2
				}
			}
		}
	],
	"meshes":[
		{
			"name":"model_asteroid_01_d_CCX.002",
			"primitives":[
				{
					"attributes":{
						"POSITION":0,
						"NORMAL":1
					},
					"indices":2
				}
			]
		},
		{
			"name":"model_asteroid_01_d.002",
			"primitives":[
				{
					"attributes":{
						"POSITION":3,
						"NORMAL":4,
						"TEXCOORD_0":5,
						"TANGENT":6
					},
					"indices":7,
					"material":0
				}
			]
		}
	],
	"textures":[
		{
			"sampler":0,
			"source":0
		},
		{
			"sampler":0,
			"source":1
		},
		{
			"sampler":0,
			"source":2
		}
	],
	"images":[
		{
			"mimeType":"image/png",
			"name":"model_asteroid_01_norm",
			"uri":"model_asteroid_01_norm.png"
		},
		{
			"mimeType":"image/png",
			"name":"model_asteroid_01_diff",
			"uri":"model_asteroid_01_diff.png"
		},
		{
			"mimeType":"image/png",
			"name":"model_asteroid_01_meta",
			"uri":"model_asteroid_01_meta.png"
		}
	],
	"accessors":[
		{
			"bufferView":0,
			"componentType":5126,
			"count":18,
			"max":[
				0.9229550361633301,
				1.0067946910858154,
				1.0208523273468018
			],
			"min":[
				-0.8944249749183655,
				-0.992490291595459,
				-0.9118577241897583
			],
			"type":"VEC3"
		},
		{
			"bufferView":1,
			"componentType":5126,
			"count":18,
			"type":"VEC3"
		},
		{
			"bufferView":2,
			"componentType":5123,
			"count":96,
			"type":"SCALAR"
		},
		{
			"bufferView":3,
			"componentType":5126,
			"count":966,
			"max":[
				0.8137276768684387,
				0.9658371806144714,
				0.9994153380393982
			],
			"min":[
				-0.7946028709411621,
				-0.9367528557777405,
				-0.846030056476593
			],
			"type":"VEC3"
		},
		{
			"bufferView":4,
			"componentType":5126,
			"count":966,
			"type":"VEC3"
		},
		{
			"bufferView":5,
			"componentType":5126,
			"count":966,
			"type":"VEC2"
		},
		{
			"bufferView":6,
			"componentType":5126,
			"count":966,
			"type":"VEC4"
		},
		{
			"bufferView":7,
			"componentType":5123,
			"count":1014,
			"type":"SCALAR"
		}
	],
	"bufferViews":[
		{
			"buffer":0,
			"byteLength":216,
			"byteOffset":0,
			"target":34962
		},
		{
			"buffer":0,
			"byteLength":216,
			"byteOffset":216,
			"target":34962
		},
		{
			"buffer":0,
			"byteLength":192,
			"byteOffset":432,
			"target":34963
		},
		{
			"buffer":0,
			"byteLength":11592,
			"byteOffset":624,
			"target":34962
		},
		{
			"buffer":0,
			"byteLength":11592,
			"byteOffset":12216,
			"target":34962
		},
		{
			"buffer":0,
			"byteLength":7728,
			"byteOffset":23808,
			"target":34962
		},
		{
			"buffer":0,
			"byteLength":15456,
			"byteOffset":31536,
			"target":34962
		},
		{
			"buffer":0,
			"byteLength":2028,
			"byteOffset":46992,
			"target":34963
		}
	],
	"samplers":[
		{
			"magFilter":9729,
			"minFilter":9987
		}
	],
	"buffers":[
		{
			"byteLength":49020,
			"uri":"model_asteroid_01_d.bin"
		}
	]
}
