{
	"asset":{
		"generator":"Khronos glTF Blender I/O v3.6.27",
		"version":"2.0"
	},
	"scene":0,
	"scenes":[
		{
			"name":"Scene",
			"nodes":[
				0,
				1
			]
		}
	],
	"nodes":[
		{
			"mesh":0,
			"name":"model_asteroid_01_g_CCX"
		},
		{
			"mesh":1,
			"name":"model_asteroid_01_g"
		}
	],
	"materials":[
		{
			"name":"Material.006",
			"normalTexture":{
				"index":0
			},
			"pbrMetallicRoughness":{
				"baseColorFactor":[
					1.0,
					1.0,
					1.0,
					1
				],
				"baseColorTexture":{
					"index":1
				},
				"metallicRoughnessTexture":{
					"index":2
				}
			}
		}
	],
	"meshes":[
		{
			"name":"model_asteroid_01_g_CCX",
			"primitives":[
				{
					"attributes":{
						"POSITION":0,
						"NORMAL":1
					},
					"indices":2
				}
			]
		},
		{
			"name":"model_asteroid_01_g",
			"primitives":[
				{
					"attributes":{
						"POSITION":3,
						"NORMAL":4,
						"TEXCOORD_0":5,
						"TANGENT":6
					},
					"indices":7,
					"material":0
				}
			]
		}
	],
	"textures":[
		{
			"sampler":0,
			"source":0
		},
		{
			"sampler":0,
			"source":1
		},
		{
			"sampler":0,
			"source":2
		}
	],
	"images":[
		{
			"mimeType":"image/png",
			"name":"model_asteroid_01_norm",
			"uri":"model_asteroid_01_norm.png"
		},
		{
			"mimeType":"image/png",
			"name":"model_asteroid_01_diff",
			"uri":"model_asteroid_01_diff.png"
		},
		{
			"mimeType":"image/png",
			"name":"model_asteroid_01_meta",
			"uri":"model_asteroid_01_meta.png"
		}
	],
	"accessors":[
		{
			"bufferView":0,
			"componentType":5126,
			"count":108,
			"max":[
				0.957008957862854,
				0.6759659051895142,
				0.925881564617157
			],
			"min":[
				-0.566550076007843,
				-0.922458827495575,
				-0.5272685885429382
			],
			"type":"VEC3"
		},
		{
			"bufferView":1,
			"componentType":5126,
			"count":108,
			"type":"VEC3"
		},
		{
			"bufferView":2,
			"componentType":5123,
			"count":108,
			"type":"SCALAR"
		},
		{
			"bufferView":3,
			"componentType":5126,
			"count":966,
			"max":[
				0.8968027830123901,
				0.6653928756713867,
				0.864733099937439
			],
			"min":[
				-0.49651309847831726,
				-0.9329547882080078,
				-0.5108363628387451
			],
			"type":"VEC3"
		},
		{
			"bufferView":4,
			"componentType":5126,
			"count":966,
			"type":"VEC3"
		},
		{
			"bufferView":5,
			"componentType":5126,
			"count":966,
			"type":"VEC2"
		},
		{
			"bufferView":6,
			"componentType":5126,
			"count":966,
			"type":"VEC4"
		},
		{
			"bufferView":7,
			"componentType":5123,
			"count":1014,
			"type":"SCALAR"
		}
	],
	"bufferViews":[
		{
			"buffer":0,
			"byteLength":1296,
			"byteOffset":0,
			"target":34962
		},
		{
			"buffer":0,
			"byteLength":1296,
			"byteOffset":1296,
			"target":34962
		},
		{
			"buffer":0,
			"byteLength":216,
			"byteOffset":2592,
			"target":34963
		},
		{
			"buffer":0,
			"byteLength":11592,
			"byteOffset":2808,
			"target":34962
		},
		{
			"buffer":0,
			"byteLength":11592,
			"byteOffset":14400,
			"target":34962
		},
		{
			"buffer":0,
			"byteLength":7728,
			"byteOffset":25992,
			"target":34962
		},
		{
			"buffer":0,
			"byteLength":15456,
			"byteOffset":33720,
			"target":34962
		},
		{
			"buffer":0,
			"byteLength":2028,
			"byteOffset":49176,
			"target":34963
		}
	],
	"samplers":[
		{
			"magFilter":9729,
			"minFilter":9987
		}
	],
	"buffers":[
		{
			"byteLength":51204,
			"uri":"model_asteroid_01_g.bin"
		}
	]
}
