{
    "asset" : {
        "generator" : "Khronos glTF Blender I/O v1.8.19",
        "version" : "2.0"
    },
    "scene" : 0,
    "scenes" : [
        {
            "name" : "Scene",
            "nodes" : [
                0,
                1,
                2,
                3,
                4,
                5
            ]
        }
    ],
    "nodes" : [
        {
            "mesh" : 0,
            "name" : "X+"
        },
        {
            "mesh" : 1,
            "name" : "X-"
        },
        {
            "mesh" : 2,
            "name" : "Y+"
        },
        {
            "mesh" : 3,
            "name" : "Y-"
        },
        {
            "mesh" : 4,
            "name" : "Z-",
            "translation" : [
                -0.0002050093316938728,
                0.0013035684823989868,
                -0.0015849763294681907
            ]
        },
        {
            "mesh" : 5,
            "name" : "Z+",
            "translation" : [
                -0.0002050093316938728,
                0.0013035684823989868,
                -0.0015849763294681907
            ]
        }
    ],
    "meshes" : [
        {
            "name" : "Cube.011",
            "primitives" : [
                {
                    "attributes" : {
                        "POSITION" : 0,
                        "NORMAL" : 1,
                        "TANGENT" : 2,
                        "TEXCOORD_0" : 3
                    },
                    "indices" : 4
                }
            ]
        },
        {
            "name" : "Cube.012",
            "primitives" : [
                {
                    "attributes" : {
                        "POSITION" : 5,
                        "NORMAL" : 6,
                        "TANGENT" : 7,
                        "TEXCOORD_0" : 8
                    },
                    "indices" : 9
                }
            ]
        },
        {
            "name" : "Cube.013",
            "primitives" : [
                {
                    "attributes" : {
                        "POSITION" : 10,
                        "NORMAL" : 11,
                        "TANGENT" : 12,
                        "TEXCOORD_0" : 13
                    },
                    "indices" : 14
                }
            ]
        },
        {
            "name" : "Cube.014",
            "primitives" : [
                {
                    "attributes" : {
                        "POSITION" : 15,
                        "NORMAL" : 16,
                        "TANGENT" : 17,
                        "TEXCOORD_0" : 18
                    },
                    "indices" : 19
                }
            ]
        },
        {
            "name" : "Cube.015",
            "primitives" : [
                {
                    "attributes" : {
                        "POSITION" : 20,
                        "NORMAL" : 21,
                        "TANGENT" : 22,
                        "TEXCOORD_0" : 23
                    },
                    "indices" : 24
                }
            ]
        },
        {
            "name" : "Cube.016",
            "primitives" : [
                {
                    "attributes" : {
                        "POSITION" : 25,
                        "NORMAL" : 26,
                        "TANGENT" : 27,
                        "TEXCOORD_0" : 28
                    },
                    "indices" : 9
                }
            ]
        }
    ],
    "accessors" : [
        {
            "bufferView" : 0,
            "componentType" : 5126,
            "count" : 3,
            "max" : [
                0.5,
                0.5,
                0.5
            ],
            "min" : [
                0.5,
                -0.5,
                -0.5
            ],
            "type" : "VEC3"
        },
        {
            "bufferView" : 1,
            "componentType" : 5126,
            "count" : 3,
            "type" : "VEC3"
        },
        {
            "bufferView" : 2,
            "componentType" : 5126,
            "count" : 3,
            "type" : "VEC4"
        },
        {
            "bufferView" : 3,
            "componentType" : 5126,
            "count" : 3,
            "type" : "VEC2"
        },
        {
            "bufferView" : 4,
            "componentType" : 5123,
            "count" : 3,
            "type" : "SCALAR"
        },
        {
            "bufferView" : 5,
            "componentType" : 5126,
            "count" : 4,
            "max" : [
                -0.5,
                0.5,
                0.5
            ],
            "min" : [
                -0.5,
                -0.5,
                -0.5
            ],
            "type" : "VEC3"
        },
        {
            "bufferView" : 6,
            "componentType" : 5126,
            "count" : 4,
            "type" : "VEC3"
        },
        {
            "bufferView" : 7,
            "componentType" : 5126,
            "count" : 4,
            "type" : "VEC4"
        },
        {
            "bufferView" : 8,
            "componentType" : 5126,
            "count" : 4,
            "type" : "VEC2"
        },
        {
            "bufferView" : 9,
            "componentType" : 5123,
            "count" : 6,
            "type" : "SCALAR"
        },
        {
            "bufferView" : 10,
            "componentType" : 5126,
            "count" : 6,
            "max" : [
                0.5,
                0.5,
                0.5
            ],
            "min" : [
                -0.5,
                -0.5,
                -0.5
            ],
            "type" : "VEC3"
        },
        {
            "bufferView" : 11,
            "componentType" : 5126,
            "count" : 6,
            "type" : "VEC3"
        },
        {
            "bufferView" : 12,
            "componentType" : 5126,
            "count" : 6,
            "type" : "VEC4"
        },
        {
            "bufferView" : 13,
            "componentType" : 5126,
            "count" : 6,
            "type" : "VEC2"
        },
        {
            "bufferView" : 14,
            "componentType" : 5123,
            "count" : 6,
            "type" : "SCALAR"
        },
        {
            "bufferView" : 15,
            "componentType" : 5126,
            "count" : 4,
            "max" : [
                0.5,
                -0.5,
                0.5
            ],
            "min" : [
                -0.5,
                -0.5,
                -0.5
            ],
            "type" : "VEC3"
        },
        {
            "bufferView" : 16,
            "componentType" : 5126,
            "count" : 4,
            "type" : "VEC3"
        },
        {
            "bufferView" : 17,
            "componentType" : 5126,
            "count" : 4,
            "type" : "VEC4"
        },
        {
            "bufferView" : 18,
            "componentType" : 5126,
            "count" : 4,
            "type" : "VEC2"
        },
        {
            "bufferView" : 19,
            "componentType" : 5123,
            "count" : 6,
            "type" : "SCALAR"
        },
        {
            "bufferView" : 20,
            "componentType" : 5126,
            "count" : 3,
            "max" : [
                0.5,
                0.5,
                0.5
            ],
            "min" : [
                -0.5,
                -0.5,
                0.5
            ],
            "type" : "VEC3"
        },
        {
            "bufferView" : 21,
            "componentType" : 5126,
            "count" : 3,
            "type" : "VEC3"
        },
        {
            "bufferView" : 22,
            "componentType" : 5126,
            "count" : 3,
            "type" : "VEC4"
        },
        {
            "bufferView" : 23,
            "componentType" : 5126,
            "count" : 3,
            "type" : "VEC2"
        },
        {
            "bufferView" : 24,
            "componentType" : 5123,
            "count" : 3,
            "type" : "SCALAR"
        },
        {
            "bufferView" : 25,
            "componentType" : 5126,
            "count" : 4,
            "max" : [
                0.5,
                0.5,
                -0.5
            ],
            "min" : [
                -0.5,
                -0.5,
                -0.5
            ],
            "type" : "VEC3"
        },
        {
            "bufferView" : 26,
            "componentType" : 5126,
            "count" : 4,
            "type" : "VEC3"
        },
        {
            "bufferView" : 27,
            "componentType" : 5126,
            "count" : 4,
            "type" : "VEC4"
        },
        {
            "bufferView" : 28,
            "componentType" : 5126,
            "count" : 4,
            "type" : "VEC2"
        }
    ],
    "bufferViews" : [
        {
            "buffer" : 0,
            "byteLength" : 36,
            "byteOffset" : 0
        },
        {
            "buffer" : 0,
            "byteLength" : 36,
            "byteOffset" : 36
        },
        {
            "buffer" : 0,
            "byteLength" : 48,
            "byteOffset" : 72
        },
        {
            "buffer" : 0,
            "byteLength" : 24,
            "byteOffset" : 120
        },
        {
            "buffer" : 0,
            "byteLength" : 6,
            "byteOffset" : 144
        },
        {
            "buffer" : 0,
            "byteLength" : 48,
            "byteOffset" : 152
        },
        {
            "buffer" : 0,
            "byteLength" : 48,
            "byteOffset" : 200
        },
        {
            "buffer" : 0,
            "byteLength" : 64,
            "byteOffset" : 248
        },
        {
            "buffer" : 0,
            "byteLength" : 32,
            "byteOffset" : 312
        },
        {
            "buffer" : 0,
            "byteLength" : 12,
            "byteOffset" : 344
        },
        {
            "buffer" : 0,
            "byteLength" : 72,
            "byteOffset" : 356
        },
        {
            "buffer" : 0,
            "byteLength" : 72,
            "byteOffset" : 428
        },
        {
            "buffer" : 0,
            "byteLength" : 96,
            "byteOffset" : 500
        },
        {
            "buffer" : 0,
            "byteLength" : 48,
            "byteOffset" : 596
        },
        {
            "buffer" : 0,
            "byteLength" : 12,
            "byteOffset" : 644
        },
        {
            "buffer" : 0,
            "byteLength" : 48,
            "byteOffset" : 656
        },
        {
            "buffer" : 0,
            "byteLength" : 48,
            "byteOffset" : 704
        },
        {
            "buffer" : 0,
            "byteLength" : 64,
            "byteOffset" : 752
        },
        {
            "buffer" : 0,
            "byteLength" : 32,
            "byteOffset" : 816
        },
        {
            "buffer" : 0,
            "byteLength" : 12,
            "byteOffset" : 848
        },
        {
            "buffer" : 0,
            "byteLength" : 36,
            "byteOffset" : 860
        },
        {
            "buffer" : 0,
            "byteLength" : 36,
            "byteOffset" : 896
        },
        {
            "buffer" : 0,
            "byteLength" : 48,
            "byteOffset" : 932
        },
        {
            "buffer" : 0,
            "byteLength" : 24,
            "byteOffset" : 980
        },
        {
            "buffer" : 0,
            "byteLength" : 6,
            "byteOffset" : 1004
        },
        {
            "buffer" : 0,
            "byteLength" : 48,
            "byteOffset" : 1012
        },
        {
            "buffer" : 0,
            "byteLength" : 48,
            "byteOffset" : 1060
        },
        {
            "buffer" : 0,
            "byteLength" : 64,
            "byteOffset" : 1108
        },
        {
            "buffer" : 0,
            "byteLength" : 32,
            "byteOffset" : 1172
        }
    ],
    "buffers" : [
        {
            "byteLength" : 1204,
            "uri" : "shape_penta.bin"
        }
    ]
}
